<?xml version="1.0" encoding="UTF-8" standalone="no"?>
<!-- Created with Inkscape (http://www.inkscape.org/) -->

<svg
   xmlns:dc="http://purl.org/dc/elements/1.1/"
   xmlns:cc="http://creativecommons.org/ns#"
   xmlns:rdf="http://www.w3.org/1999/02/22-rdf-syntax-ns#"
   xmlns:svg="http://www.w3.org/2000/svg"
   xmlns="http://www.w3.org/2000/svg"
   xmlns:sodipodi="http://sodipodi.sourceforge.net/DTD/sodipodi-0.dtd"
   xmlns:inkscape="http://www.inkscape.org/namespaces/inkscape"
   width="353.09375"
   height="167.04427"
   id="svg2"
   version="1.1"
   inkscape:version="0.48.4 r9939"
   sodipodi:docname="dibujo-1.svg">
  <defs
     id="defs4" />
  <sodipodi:namedview
     id="base"
     pagecolor="#ffffff"
     bordercolor="#666666"
     borderopacity="1.0"
     inkscape:pageopacity="0.0"
     inkscape:pageshadow="2"
     inkscape:zoom="2.8"
     inkscape:cx="-2.4126385"
     inkscape:cy="104.17019"
     inkscape:document-units="px"
     inkscape:current-layer="layer1"
     showgrid="false"
     inkscape:window-width="1920"
     inkscape:window-height="1026"
     inkscape:window-x="0"
     inkscape:window-y="0"
     inkscape:window-maximized="1"
     fit-margin-top="0"
     fit-margin-left="0"
     fit-margin-right="0"
     fit-margin-bottom="0" />
  <metadata
     id="metadata7">
    <rdf:RDF>
      <cc:Work
         rdf:about="">
        <dc:format>image/svg+xml</dc:format>
        <dc:type
           rdf:resource="http://purl.org/dc/dcmitype/StillImage" />
        <dc:title></dc:title>
      </cc:Work>
    </rdf:RDF>
  </metadata>
  <g
     inkscape:label="Capa 1"
     inkscape:groupmode="layer"
     id="layer1"
     transform="translate(-81.044643,-28.428941)">
    <text
       xml:space="preserve"
       style="font-size:64px;font-style:normal;font-variant:normal;font-weight:bold;font-stretch:condensed;text-align:start;line-height:125%;letter-spacing:0px;word-spacing:0px;writing-mode:lr-tb;text-anchor:start;fill:#333333;fill-opacity:1;stroke:none;font-family:Futura Std;-inkscape-font-specification:Futura Std Bold Condensed"
       x="75.761444"
       y="103.82894"
       id="text2985"
       sodipodi:linespacing="125%"><tspan
         sodipodi:role="line"
         id="tspan2987"
         x="75.761444"
         y="103.82894"
         style="font-size:100px">KEEP</tspan></text>
    <path
       style="font-size:56px;font-style:normal;font-variant:normal;font-weight:bold;font-stretch:condensed;text-align:start;line-height:125%;letter-spacing:0px;word-spacing:0px;writing-mode:lr-tb;text-anchor:start;fill:#8bc34a;fill-opacity:1;stroke:none;font-family:Futura Std;-inkscape-font-specification:Futura Std Bold Condensed"
       d="m 409.91964,117.69196 c -21.29998,0 -26.875,21.88127 -26.875,39.28125 0,16.69998 6.57502,38.5 26.875,38.5 20.29998,0 24.21875,-21.28127 24.21875,-37.28125 l 0,-5.90625 -24.40625,0 0,14 9.5,0 c 0,5.19999 -1.21251,15.40625 -8.8125,15.40625 -10.99999,0 -11.5,-17.29376 -11.5,-25.09375 0,-7.09999 1.02501,-25.725 11.125,-25.125 5.69999,0 6.89375,5.91876 7.59375,9.71875 l 14.5,-5.59375 c -3.2,-10.69999 -10.71876,-17.90625 -22.21875,-17.90625 z m -328.874997,1.1875 0,75.40625 14.90625,0 0,-34.8125 0.1875,0 13.093747,34.8125 15.71875,0 -13.09375,-34.3125 c 7.39999,-4.1 10.6875,-11.20001 10.6875,-19.5 0,-20.59998 -17.00001,-21.59375 -26.499997,-21.59375 l -15,0 z m 52.531247,0 0,56 c 0,14.09999 8.28751,20.59375 22.1875,20.59375 21.49998,0 22.40625,-13.59376 22.40625,-21.59375 l 0,-55 -14.90625,0 0,52 c -0.1,5.59999 -0.075,11.09375 -7.375,11.09375 -8.09999,0 -7.40625,-8.58126 -7.40625,-14.28125 l 0,-48.8125 -14.90625,0 z m 54.90625,0 0,75.40625 14.875,0 0,-34.59375 -0.0937,-3.09375 -0.6875,-7.625 0.1875,-0.1875 18.40625,45.5 14.09375,0 0,-75.40625 -14.90625,0 0,33.90625 c 0,3.9 0.31875,7.80625 1.21875,11.40625 l -0.21875,0.1875 -18.59375,-45.5 -14.28125,0 z m 57.21875,0 0,75.40625 14.90625,0 0,-34.59375 -0.125,-3.09375 -0.6875,-7.625 0.1875,-0.1875 18.40625,45.5 14.09375,0 0,-75.40625 -14.875,0 0,33.90625 c 0,3.9 0.2875,7.80625 1.1875,11.40625 l -0.1875,0.1875 -18.625,-45.5 -14.28125,0 z m 57.21875,0 0,75.40625 14.90625,0 0,-75.40625 -14.90625,0 z m 25.59375,0 0,75.40625 14.90625,0 0,-34.59375 -0.125,-3.09375 -0.6875,-7.625 0.1875,-0.1875 18.40625,45.5 14.09375,0 0,-75.40625 -14.875,0 0,33.90625 c 0,3.9 0.2875,7.80625 1.1875,11.40625 l -0.1875,0.1875 -18.625,-45.5 -14.28125,0 z M 99.294643,131.16071 c 6.465447,0.17359 8.749997,4.37501 8.749997,9.4375 0,6.19999 -2.70001,10.78125 -9.499997,10.78125 l -2.59375,-0.0937 0,-20.09375 2,0 c 0.46875,-0.025 0.91272,-0.0428 1.34375,-0.0312 z"
       id="text2989"
       inkscape:connector-curvature="0" />
  </g>
</svg>
